<svg width="1080" height="1080" viewBox="0 0 1080 1080" fill="none" xmlns="http://www.w3.org/2000/svg">
<g filter="url(#filter0_d_33_132)">
<mask id="path-1-outside-1_33_132" maskUnits="userSpaceOnUse" x="95" y="15" width="839" height="990" fill="black">
<rect fill="white" x="95" y="15" width="839" height="990"/>
<path fill-rule="evenodd" clip-rule="evenodd" d="M338.016 605.004C331.02 595.563 325.061 585.344 320.318 574.29C281.47 486.817 184.731 461.127 124.188 457.976C115.897 457.545 111.725 447.067 118.092 441.738C248.943 332.215 389.604 377.25 449.277 417.429C450.272 418.099 451.087 418.955 451.7 419.934V391.346V286.738V48.2205C451.7 47.2972 451.837 46.3821 452.113 45.5237C452.589 44.0415 453.481 42.728 454.799 41.8317C497.407 12.8669 640.548 77.9074 591.045 200.838L718.464 153.577L802.154 122.535C816.346 111.499 850.439 91.6049 876.723 97.8794C885.791 98.4886 905.653 106.043 912.555 131.387C914.103 149.46 915.341 191.212 907.909 213.631L901.937 222.769L901.33 220.12C910.523 274.403 902.365 330.486 860.222 373.064C859.798 373.492 859.417 373.95 859.082 374.431C858.819 374.591 858.569 374.779 858.337 374.996C833.821 397.876 803.198 420.643 759.181 437.964C715.701 455.074 658.832 466.994 581.408 468.187C578.574 468.231 576.416 465.639 577.19 462.911C578.634 457.823 580.548 453.248 582.519 449.485C584.407 445.879 584.259 441.404 581.638 438.292L579.454 435.7C575.685 431.226 568.735 431.562 566.096 436.784C561.706 445.474 557.713 456.797 556.202 469.595C554.306 485.66 556.404 503.661 565.892 520.727C568.736 525.844 575.752 525.952 579.397 521.372L581.604 518.597C584.136 515.415 584.132 510.958 582.073 507.45C577.561 499.761 575.458 492.122 574.859 484.889C574.656 482.438 576.675 480.435 579.134 480.405C659.205 479.411 718.585 467.195 764.409 449.163C805.326 433.062 835.173 412.425 859.134 391.388C865.25 433.82 875.455 530.197 859.808 625.283C863.185 636.038 865.005 647.482 865.005 659.351C865.005 684.043 857.127 706.895 843.748 725.531C843.844 726.009 843.902 726.496 843.919 726.987L852.513 973.221C852.689 978.271 848.638 982.472 843.579 982.472H777.835C772.994 982.472 769.036 978.655 768.881 973.811C767.516 931.348 763.979 863.007 757.864 822.293C737.351 837.935 713.208 850.267 684.844 858.199C680.89 859.305 677.969 862.897 677.969 867.003V975.357C677.969 980.291 673.967 984.296 669.03 984.296H598.76C594.328 984.296 590.565 981.051 589.918 976.662L567.375 824.019C565.889 813.962 551.442 813.793 549.722 823.813L541.042 874.379C540.391 878.171 537.426 881.127 533.611 881.618C518.319 883.585 497.725 885.026 474.914 884.706V973.533C474.914 978.468 470.912 982.472 465.976 982.472H397.416C392.807 982.472 388.954 978.968 388.518 974.374L378.693 870.95C364.399 866.478 350.83 860.711 338.706 853.359C335.244 851.261 330.812 851.513 327.623 854.005C313.776 864.828 287.836 881.65 261.182 888.63C257.984 889.467 255.383 891.853 254.467 895.031L230.612 977.833C229.509 981.659 226.006 984.296 222.022 984.296H150.13C144.93 984.296 140.828 979.871 141.216 974.687L149.169 868.287C149.505 863.802 153.372 859.953 156.613 856.727C156.744 856.598 156.873 856.469 157.001 856.341C163.733 849.627 171.021 832.507 171.021 795.438C167.495 761.983 168.445 693.351 195.635 658.459C200.025 652.826 198.618 643.256 192.263 639.999C170.75 628.972 141.913 608.424 131.872 580.382C120.528 548.703 148.46 520.679 186.946 525.553C227.771 530.723 247.593 566.059 254.122 592.813C255.359 597.885 260.314 601.34 265.447 600.385C289.059 595.994 325.059 592.118 332.925 602.314C333.904 603.582 335.644 604.461 338.016 605.004Z"/>
</mask>
<path fill-rule="evenodd" clip-rule="evenodd" d="M338.016 605.004C331.02 595.563 325.061 585.344 320.318 574.29C281.47 486.817 184.731 461.127 124.188 457.976C115.897 457.545 111.725 447.067 118.092 441.738C248.943 332.215 389.604 377.25 449.277 417.429C450.272 418.099 451.087 418.955 451.7 419.934V391.346V286.738V48.2205C451.7 47.2972 451.837 46.3821 452.113 45.5237C452.589 44.0415 453.481 42.728 454.799 41.8317C497.407 12.8669 640.548 77.9074 591.045 200.838L718.464 153.577L802.154 122.535C816.346 111.499 850.439 91.6049 876.723 97.8794C885.791 98.4886 905.653 106.043 912.555 131.387C914.103 149.46 915.341 191.212 907.909 213.631L901.937 222.769L901.33 220.12C910.523 274.403 902.365 330.486 860.222 373.064C859.798 373.492 859.417 373.95 859.082 374.431C858.819 374.591 858.569 374.779 858.337 374.996C833.821 397.876 803.198 420.643 759.181 437.964C715.701 455.074 658.832 466.994 581.408 468.187C578.574 468.231 576.416 465.639 577.19 462.911C578.634 457.823 580.548 453.248 582.519 449.485C584.407 445.879 584.259 441.404 581.638 438.292L579.454 435.7C575.685 431.226 568.735 431.562 566.096 436.784C561.706 445.474 557.713 456.797 556.202 469.595C554.306 485.66 556.404 503.661 565.892 520.727C568.736 525.844 575.752 525.952 579.397 521.372L581.604 518.597C584.136 515.415 584.132 510.958 582.073 507.45C577.561 499.761 575.458 492.122 574.859 484.889C574.656 482.438 576.675 480.435 579.134 480.405C659.205 479.411 718.585 467.195 764.409 449.163C805.326 433.062 835.173 412.425 859.134 391.388C865.25 433.82 875.455 530.197 859.808 625.283C863.185 636.038 865.005 647.482 865.005 659.351C865.005 684.043 857.127 706.895 843.748 725.531C843.844 726.009 843.902 726.496 843.919 726.987L852.513 973.221C852.689 978.271 848.638 982.472 843.579 982.472H777.835C772.994 982.472 769.036 978.655 768.881 973.811C767.516 931.348 763.979 863.007 757.864 822.293C737.351 837.935 713.208 850.267 684.844 858.199C680.89 859.305 677.969 862.897 677.969 867.003V975.357C677.969 980.291 673.967 984.296 669.03 984.296H598.76C594.328 984.296 590.565 981.051 589.918 976.662L567.375 824.019C565.889 813.962 551.442 813.793 549.722 823.813L541.042 874.379C540.391 878.171 537.426 881.127 533.611 881.618C518.319 883.585 497.725 885.026 474.914 884.706V973.533C474.914 978.468 470.912 982.472 465.976 982.472H397.416C392.807 982.472 388.954 978.968 388.518 974.374L378.693 870.95C364.399 866.478 350.83 860.711 338.706 853.359C335.244 851.261 330.812 851.513 327.623 854.005C313.776 864.828 287.836 881.65 261.182 888.63C257.984 889.467 255.383 891.853 254.467 895.031L230.612 977.833C229.509 981.659 226.006 984.296 222.022 984.296H150.13C144.93 984.296 140.828 979.871 141.216 974.687L149.169 868.287C149.505 863.802 153.372 859.953 156.613 856.727C156.744 856.598 156.873 856.469 157.001 856.341C163.733 849.627 171.021 832.507 171.021 795.438C167.495 761.983 168.445 693.351 195.635 658.459C200.025 652.826 198.618 643.256 192.263 639.999C170.75 628.972 141.913 608.424 131.872 580.382C120.528 548.703 148.46 520.679 186.946 525.553C227.771 530.723 247.593 566.059 254.122 592.813C255.359 597.885 260.314 601.34 265.447 600.385C289.059 595.994 325.059 592.118 332.925 602.314C333.904 603.582 335.644 604.461 338.016 605.004Z" fill="#0B2027"/>
<path d="M320.318 574.29L338.698 566.404L338.648 566.288L338.597 566.172L320.318 574.29ZM338.016 605.004L333.553 624.499L386.309 636.578L354.085 593.096L338.016 605.004ZM124.188 457.976L125.228 438.003L125.226 438.003L124.188 457.976ZM118.092 441.738L130.928 457.075L130.928 457.075L118.092 441.738ZM449.277 417.429L460.449 400.84L460.447 400.839L449.277 417.429ZM451.7 419.934L434.748 430.547L471.7 489.571V419.934H451.7ZM452.113 45.5237L471.153 51.6452L471.153 51.6452L452.113 45.5237ZM454.799 41.8317L443.555 25.2916L443.554 25.2922L454.799 41.8317ZM591.045 200.838L572.492 193.367L555.6 235.316L598 219.59L591.045 200.838ZM718.464 153.577L725.419 172.329L725.419 172.329L718.464 153.577ZM802.154 122.535L809.109 141.287L811.999 140.215L814.432 138.323L802.154 122.535ZM876.723 97.8794L872.079 117.333L873.709 117.722L875.382 117.834L876.723 97.8794ZM912.555 131.387L932.482 129.68L932.327 127.877L931.852 126.132L912.555 131.387ZM907.909 213.631L924.651 224.572L926.075 222.394L926.893 219.924L907.909 213.631ZM901.937 222.769L882.443 227.24L892.954 273.075L918.679 233.71L901.937 222.769ZM901.33 220.12L920.824 215.65L881.611 223.459L901.33 220.12ZM860.222 373.064L846.008 358.994L846.006 358.996L860.222 373.064ZM859.082 374.431L869.483 391.515L873.1 389.312L875.514 385.833L859.082 374.431ZM858.337 374.996L871.983 389.618L871.988 389.613L871.993 389.608L858.337 374.996ZM759.181 437.964L766.504 456.575L766.504 456.575L759.181 437.964ZM581.408 468.187L581.1 448.19L581.099 448.19L581.408 468.187ZM577.19 462.911L557.95 457.448L557.949 457.451L577.19 462.911ZM582.519 449.485L600.236 458.764L600.238 458.761L582.519 449.485ZM581.638 438.292L596.934 425.407L596.932 425.404L581.638 438.292ZM579.454 435.7L564.159 448.587L564.16 448.588L579.454 435.7ZM566.096 436.784L548.246 427.764L548.245 427.765L566.096 436.784ZM556.202 469.595L536.34 467.251L536.34 467.251L556.202 469.595ZM565.892 520.727L583.372 511.01L583.372 511.01L565.892 520.727ZM579.397 521.372L595.046 533.826L595.049 533.822L579.397 521.372ZM581.604 518.597L565.954 506.144L565.951 506.147L581.604 518.597ZM582.073 507.45L599.323 497.329L599.322 497.328L582.073 507.45ZM574.859 484.889L554.927 486.539L554.927 486.54L574.859 484.889ZM579.134 480.405L579.381 500.403L579.382 500.403L579.134 480.405ZM764.409 449.163L757.085 430.552L757.085 430.552L764.409 449.163ZM859.134 391.388L878.93 388.535L873.666 352.016L845.939 376.359L859.134 391.388ZM859.808 625.283L840.073 622.035L839.301 626.732L840.726 631.274L859.808 625.283ZM843.748 725.531L827.501 713.867L822.42 720.944L824.142 729.485L843.748 725.531ZM843.919 726.987L823.931 727.685L823.931 727.685L843.919 726.987ZM852.513 973.221L872.5 972.524L872.5 972.523L852.513 973.221ZM768.881 973.811L788.87 973.169L788.87 973.168L768.881 973.811ZM757.864 822.293L777.643 819.323L772.622 785.888L745.737 806.389L757.864 822.293ZM684.844 858.199L690.23 877.461L690.23 877.46L684.844 858.199ZM589.918 976.662L609.704 973.745L609.703 973.74L589.918 976.662ZM567.375 824.019L587.16 821.097L587.16 821.097L567.375 824.019ZM549.722 823.813L569.433 827.197L569.434 827.196L549.722 823.813ZM541.042 874.379L521.33 870.996L521.33 870.997L541.042 874.379ZM533.611 881.618L536.162 901.455L536.163 901.455L533.611 881.618ZM474.914 884.706L475.195 864.708L454.914 864.423V884.706H474.914ZM388.518 974.374L408.428 972.484L408.428 972.482L388.518 974.374ZM378.693 870.95L398.603 869.058L397.346 855.829L384.664 851.862L378.693 870.95ZM338.706 853.359L349.076 836.257L349.071 836.255L338.706 853.359ZM327.623 854.005L315.309 838.246L315.306 838.248L327.623 854.005ZM261.182 888.63L256.116 869.282L256.115 869.282L261.182 888.63ZM254.467 895.031L273.686 900.567L273.686 900.566L254.467 895.031ZM230.612 977.833L249.829 983.374L249.83 983.37L230.612 977.833ZM141.216 974.687L161.16 976.178L161.16 976.177L141.216 974.687ZM149.169 868.287L169.114 869.778L169.114 869.778L149.169 868.287ZM156.613 856.727L142.513 842.543L142.504 842.552L156.613 856.727ZM157.001 856.341L142.878 842.18L142.875 842.183L157.001 856.341ZM171.021 795.438H191.021V794.387L190.911 793.341L171.021 795.438ZM195.635 658.459L179.859 646.166L179.859 646.166L195.635 658.459ZM192.263 639.999L183.14 657.797L183.141 657.798L192.263 639.999ZM131.872 580.382L150.701 573.64L150.701 573.64L131.872 580.382ZM186.946 525.553L189.459 505.711L189.459 505.711L186.946 525.553ZM254.122 592.813L273.553 588.074L273.552 588.071L254.122 592.813ZM265.447 600.385L261.79 580.722L261.789 580.722L265.447 600.385ZM332.925 602.314L317.09 614.53L317.09 614.531L332.925 602.314ZM301.939 582.176C307.32 594.717 314.069 606.28 321.948 616.912L354.085 593.096C347.972 584.847 342.803 575.971 338.698 566.404L301.939 582.176ZM123.149 477.949C181.449 480.983 267.922 505.587 302.04 582.408L338.597 566.172C295.017 468.048 188.013 441.27 125.228 438.003L123.149 477.949ZM105.255 426.401C94.5102 435.394 93.1231 448.848 96.9749 458.869C100.743 468.672 110.187 477.275 123.15 477.949L125.226 438.003C129.898 438.245 133.111 441.394 134.312 444.518C135.597 447.86 135.307 453.411 130.928 457.075L105.255 426.401ZM460.447 400.839C396.209 357.586 245.234 309.239 105.255 426.402L130.928 457.075C252.653 355.192 382.998 396.913 438.106 434.018L460.447 400.839ZM468.652 409.321C466.582 406.014 463.814 403.106 460.449 400.84L438.104 434.017C436.731 433.092 435.593 431.896 434.748 430.547L468.652 409.321ZM431.7 391.346V419.934H471.7V391.346H431.7ZM431.7 286.738V391.346H471.7V286.738H431.7ZM431.7 48.2205V286.738H471.7V48.2205H431.7ZM433.073 39.4021C432.124 42.353 431.7 45.3426 431.7 48.2205H471.7C471.7 49.2517 471.55 50.4112 471.153 51.6452L433.073 39.4021ZM443.554 25.2922C438.056 29.0303 434.719 34.2802 433.073 39.4021L471.153 51.6452C470.459 53.8027 468.905 56.4256 466.044 58.3713L443.554 25.2922ZM609.597 208.309C623.542 173.68 624.337 141.827 615.732 114.126C607.209 86.689 589.926 64.7696 569.976 48.7714C550.096 32.8292 526.895 22.2028 505.166 17.6034C484.333 13.1935 460.805 13.5651 443.555 25.2916L466.043 58.3719C470.097 55.616 480.44 53.2558 496.882 56.7363C512.429 60.0272 529.908 67.9132 544.952 79.9768C559.925 91.9845 571.808 107.564 577.533 125.992C583.175 144.155 583.299 166.531 572.492 193.367L609.597 208.309ZM711.508 134.825L584.09 182.086L598 219.59L725.419 172.329L711.508 134.825ZM795.199 103.784L711.508 134.825L725.419 172.329L809.109 141.287L795.199 103.784ZM881.366 78.426C862.169 73.8432 842.331 79.055 827.317 85.2107C811.82 91.5644 798.19 100.282 789.876 106.748L814.432 138.323C820.31 133.752 830.823 127.005 842.491 122.221C854.642 117.239 864.992 115.641 872.079 117.333L881.366 78.426ZM931.852 126.132C922.29 91.0172 893.924 78.9899 878.063 77.9244L875.382 117.834C875.382 117.834 875.387 117.835 875.399 117.836C875.41 117.837 875.426 117.838 875.448 117.841C875.491 117.845 875.552 117.853 875.631 117.864C875.79 117.888 876.006 117.926 876.273 117.985C876.811 118.104 877.498 118.295 878.291 118.585C879.887 119.171 881.735 120.094 883.583 121.455C887.065 124.023 891.038 128.492 893.257 136.642L931.852 126.132ZM926.893 219.924C931.583 205.776 933.157 187.26 933.592 171.429C934.04 155.099 933.313 139.385 932.482 129.68L892.627 133.094C893.344 141.461 894.01 155.66 893.607 170.33C893.19 185.497 891.667 199.067 888.925 207.338L926.893 219.924ZM918.679 233.71L924.651 224.572L891.167 202.69L885.195 211.828L918.679 233.71ZM881.836 224.59L882.443 227.24L921.431 218.299L920.824 215.65L881.836 224.59ZM874.436 387.133C922.572 338.502 930.916 275.045 921.049 216.78L881.611 223.459C890.129 273.761 882.159 322.47 846.008 358.994L874.436 387.133ZM875.514 385.833C875.167 386.334 874.801 386.764 874.438 387.132L846.006 358.996C844.795 360.219 843.666 361.566 842.65 363.03L875.514 385.833ZM871.993 389.608C871.189 390.36 870.341 390.992 869.483 391.515L848.682 357.348C847.298 358.191 845.949 359.198 844.68 360.384L871.993 389.608ZM766.504 456.575C813.36 438.137 846.067 413.804 871.983 389.618L844.691 360.375C821.576 381.947 793.035 403.149 751.857 419.354L766.504 456.575ZM581.716 488.185C661.048 486.962 720.369 474.73 766.504 456.575L751.857 419.354C711.032 435.418 656.616 447.026 581.1 448.19L581.716 488.185ZM557.949 457.451C553.202 474.182 566.66 488.418 581.717 488.185L581.099 448.19C590.487 448.045 599.63 457.095 596.43 468.37L557.949 457.451ZM564.802 440.206C562.232 445.113 559.792 450.963 557.95 457.448L596.43 468.373C597.477 464.683 598.865 461.383 600.236 458.764L564.802 440.206ZM566.341 451.176C562.865 447.05 563.588 442.525 564.801 440.208L600.238 458.761C605.226 449.232 605.654 435.758 596.934 425.407L566.341 451.176ZM564.16 448.588L566.344 451.18L596.932 425.404L594.748 422.812L564.16 448.588ZM583.947 445.803C581.89 449.875 577.783 452.275 573.745 452.557C569.943 452.823 566.411 451.259 564.159 448.587L594.749 422.814C583.207 409.115 558.348 407.771 548.246 427.764L583.947 445.803ZM576.064 471.94C577.263 461.784 580.459 452.707 583.947 445.803L548.245 427.765C542.953 438.24 538.163 451.811 536.34 467.251L576.064 471.94ZM583.372 511.01C576.266 498.227 574.572 484.588 576.064 471.939L536.34 467.251C534.041 486.732 536.543 509.095 548.411 530.445L583.372 511.01ZM563.748 508.918C565.937 506.166 569.388 504.564 573.077 504.699C576.988 504.843 581.148 507.01 583.372 511.01L548.411 530.445C559.224 549.896 583.919 547.807 595.046 533.826L563.748 508.918ZM565.951 506.147L563.744 508.922L595.049 533.822L597.256 531.047L565.951 506.147ZM564.823 517.571C563.388 515.125 562.537 510.438 565.954 506.144L597.253 531.051C605.735 520.392 604.876 506.792 599.323 497.329L564.823 517.571ZM554.927 486.54C555.757 496.557 558.693 507.125 564.824 517.572L599.322 497.328C596.429 492.397 595.159 487.686 594.791 483.239L554.927 486.54ZM578.887 460.406C566.115 460.564 553.665 471.288 554.927 486.539L594.791 483.239C595.647 493.589 587.236 500.306 579.381 500.403L578.887 460.406ZM757.085 430.552C713.945 447.528 657.041 459.436 578.886 460.406L579.382 500.403C661.368 499.385 723.225 486.862 771.732 467.774L757.085 430.552ZM845.939 376.359C823.416 396.133 795.512 415.43 757.085 430.552L771.732 467.774C815.139 450.693 846.931 428.716 872.329 406.418L845.939 376.359ZM879.543 628.53C895.683 530.443 885.149 431.687 878.93 388.535L839.339 394.241C845.351 435.953 855.226 529.951 840.073 622.035L879.543 628.53ZM885.005 659.351C885.005 645.427 882.868 631.963 878.89 619.292L840.726 631.274C843.501 640.112 845.005 649.537 845.005 659.351H885.005ZM859.994 737.195C875.733 715.273 885.005 688.365 885.005 659.351H845.005C845.005 679.721 838.521 698.518 827.501 713.867L859.994 737.195ZM863.907 726.29C863.851 724.698 863.665 723.122 863.353 721.577L824.142 729.485C824.024 728.895 823.952 728.293 823.931 727.685L863.907 726.29ZM872.5 972.523L863.907 726.29L823.931 727.685L832.525 973.918L872.5 972.523ZM843.579 1002.47C859.968 1002.47 873.07 988.875 872.5 972.524L832.525 973.917C832.307 967.667 837.307 962.472 843.579 962.472V1002.47ZM777.835 1002.47H843.579V962.472H777.835V1002.47ZM748.891 974.453C749.394 990.126 762.237 1002.47 777.835 1002.47V962.472C783.751 962.472 788.678 967.184 788.87 973.169L748.891 974.453ZM738.086 825.263C744.008 864.695 747.526 931.979 748.891 974.453L788.87 973.168C787.506 930.716 783.95 861.32 777.643 819.323L738.086 825.263ZM690.23 877.46C721.001 868.855 747.437 855.396 769.992 838.196L745.737 806.389C727.265 820.475 705.416 831.679 679.458 838.938L690.23 877.46ZM697.969 867.003C697.969 872.521 694.27 876.331 690.23 877.461L679.458 838.938C667.509 842.279 657.969 853.273 657.969 867.003H697.969ZM697.969 975.357V867.003H657.969V975.357H697.969ZM669.03 1004.3C685.017 1004.3 697.969 991.332 697.969 975.357H657.969C657.969 969.25 662.917 964.296 669.03 964.296V1004.3ZM598.76 1004.3H669.03V964.296H598.76V1004.3ZM570.132 979.58C572.227 993.788 584.416 1004.3 598.76 1004.3V964.296C604.24 964.296 608.903 968.314 609.704 973.745L570.132 979.58ZM547.589 826.941L570.132 979.584L609.703 973.74L587.16 821.097L547.589 826.941ZM569.434 827.196C569.022 829.595 567.588 832.227 565.131 834.102C562.899 835.806 560.464 836.41 558.402 836.385C556.34 836.361 553.921 835.701 551.729 833.945C549.317 832.014 547.945 829.349 547.589 826.942L587.16 821.097C582.351 788.541 535.579 787.985 530.01 820.43L569.434 827.196ZM560.753 877.763L569.433 827.197L530.01 820.429L521.33 870.996L560.753 877.763ZM536.163 901.455C549.058 899.796 558.68 889.842 560.753 877.762L521.33 870.997C522.101 866.501 525.794 862.459 531.059 861.782L536.163 901.455ZM474.633 904.704C498.395 905.038 519.934 903.542 536.162 901.455L531.06 861.781C516.703 863.628 497.056 865.015 475.195 864.708L474.633 904.704ZM494.914 973.533V884.706H454.914V973.533H494.914ZM465.976 1002.47C481.963 1002.47 494.914 989.509 494.914 973.533H454.914C454.914 967.426 459.862 962.472 465.976 962.472V1002.47ZM397.416 1002.47H465.976V962.472H397.416V1002.47ZM368.607 976.264C370.018 991.12 382.488 1002.47 397.416 1002.47V962.472C403.127 962.472 407.89 966.817 408.428 972.484L368.607 976.264ZM358.782 872.841L368.607 976.265L408.428 972.482L398.603 869.058L358.782 872.841ZM328.336 870.461C342.121 878.819 357.234 885.193 372.721 890.038L384.664 851.862C371.564 847.764 359.54 842.602 349.076 836.257L328.336 870.461ZM339.937 869.765C336.544 872.416 331.945 872.648 328.341 870.464L349.071 836.255C338.543 829.874 325.08 830.61 315.309 838.246L339.937 869.765ZM266.248 907.977C296.662 900.013 325.104 881.359 339.94 869.763L315.306 838.248C302.449 848.298 279.009 863.287 256.116 869.282L266.248 907.977ZM273.686 900.566C272.507 904.661 269.359 907.163 266.249 907.977L256.115 869.282C246.608 871.772 238.259 879.045 235.249 889.495L273.686 900.566ZM249.83 983.37L273.686 900.567L235.249 889.494L211.394 972.296L249.83 983.37ZM222.022 1004.3C234.919 1004.3 246.258 995.761 249.829 983.374L211.395 972.293C212.76 967.556 217.093 964.296 222.022 964.296V1004.3ZM150.13 1004.3H222.022V964.296H150.13V1004.3ZM121.272 973.196C120.018 989.969 133.285 1004.3 150.13 1004.3V964.296C156.576 964.296 161.639 969.774 161.16 976.178L121.272 973.196ZM129.225 866.796L121.272 973.196L161.16 976.177L169.114 869.778L129.225 866.796ZM142.504 842.552C141.085 843.964 138.166 846.812 135.679 850.2C133.177 853.609 129.786 859.284 129.225 866.796L169.114 869.778C168.998 871.324 168.6 872.473 168.312 873.125C168.038 873.744 167.827 874.003 167.924 873.87C168.017 873.743 168.26 873.437 168.767 872.892C169.29 872.331 169.871 871.749 170.722 870.903L142.504 842.552ZM142.875 842.183C142.761 842.297 142.643 842.414 142.513 842.543L170.713 870.911C170.845 870.781 170.985 870.641 171.128 870.499L142.875 842.183ZM151.021 795.438C151.021 812.767 149.306 824.446 147.242 832.004C146.218 835.754 145.156 838.311 144.295 839.964C143.426 841.631 142.854 842.204 142.878 842.18L171.124 870.502C183.808 857.852 191.021 833.612 191.021 795.438H151.021ZM179.859 646.166C162.902 667.926 155.298 698.193 151.962 725.02C148.553 752.436 149.231 779.504 151.131 797.534L190.911 793.341C189.285 777.917 188.674 753.941 191.657 729.955C194.712 705.379 201.178 683.884 211.41 670.753L179.859 646.166ZM183.141 657.798C179.509 655.936 178.475 652.946 178.263 651.699C178.058 650.499 178.111 648.409 179.859 646.166L211.41 670.753C217.548 662.876 219.093 653.185 217.694 644.977C216.287 636.723 211.372 627.319 201.385 622.201L183.141 657.798ZM113.043 587.124C125.768 622.661 160.569 646.228 183.14 657.797L201.386 622.201C180.931 611.716 158.059 594.187 150.701 573.64L113.043 587.124ZM189.459 505.711C164.948 502.607 141.92 509.807 126.594 525.105C110.888 540.782 104.69 563.8 113.043 587.125L150.701 573.64C147.71 565.285 149.806 558.452 154.852 553.415C160.277 548 170.458 543.625 184.434 545.394L189.459 505.711ZM273.552 588.071C266.226 558.054 242.501 512.428 189.459 505.711L184.433 545.394C213.041 549.017 228.959 574.063 234.693 597.555L273.552 588.071ZM261.789 580.722C267.862 579.593 272.464 583.609 273.553 588.074L234.692 597.553C238.255 612.161 252.766 623.087 269.104 620.048L261.789 580.722ZM348.761 590.098C342.263 581.675 332.497 578.76 326.43 577.507C319.522 576.08 311.888 575.748 304.714 575.883C290.238 576.156 274.135 578.427 261.79 580.722L269.103 620.048C280.37 617.953 294.074 616.09 305.467 615.876C311.228 615.768 315.546 616.103 318.338 616.68C321.971 617.431 319.654 617.855 317.09 614.53L348.761 590.098ZM342.48 585.508C342.503 585.514 342.668 585.552 342.943 585.648C343.216 585.743 343.656 585.915 344.207 586.203C345.286 586.766 347.093 587.936 348.76 590.097L317.09 614.531C322.236 621.2 329.388 623.546 333.553 624.499L342.48 585.508Z" fill="#0B2027" mask="url(#path-1-outside-1_33_132)"/>
</g>
<g clip-path="url(#clip0_33_132)">
<path d="M852.249 972.928L843.656 726.772C843.592 724.953 842.975 723.195 841.884 721.736L838.794 717.6C835.534 713.237 829.163 712.778 825.311 716.63L754.91 787.025C752.118 789.818 751.462 794.09 752.628 797.863C761.848 827.66 766.918 920.651 768.617 973.518C768.773 978.361 772.731 982.177 777.572 982.177H843.316C848.374 982.177 852.425 977.977 852.249 972.928Z" fill="#FFB30F"/>
<path d="M388.254 974.081L377.076 856.447C376.578 851.202 380.704 846.666 385.975 846.666H465.712C470.649 846.666 474.651 850.667 474.651 855.602V973.241C474.651 978.174 470.649 982.177 465.712 982.177H397.153C392.544 982.177 388.691 978.674 388.254 974.081Z" fill="#FFB30F"/>
<path fill-rule="evenodd" clip-rule="evenodd" d="M451.437 286.659V474.241V573.813C451.437 577.639 449.02 581.04 445.385 582.237C407.894 594.588 341.205 613.206 332.662 602.137C324.796 591.944 288.795 595.82 265.183 600.209C260.051 601.163 255.096 597.71 253.859 592.639C247.329 565.893 227.508 530.568 186.683 525.4C148.197 520.528 120.265 548.543 131.609 580.212C141.65 608.245 170.486 628.787 192 639.811C198.355 643.067 199.761 652.634 195.371 658.265C168.182 693.146 167.231 761.756 170.758 795.201C170.758 832.258 163.47 849.373 156.738 856.085C156.61 856.213 156.48 856.342 156.35 856.471C153.109 859.696 149.241 863.544 148.906 868.027L140.953 974.394C140.565 979.577 144.667 984 149.866 984H221.759C225.743 984 229.246 981.364 230.349 977.539L254.204 894.763C255.119 891.586 257.72 889.201 260.919 888.364C287.572 881.387 313.513 864.57 327.36 853.75C330.549 851.259 334.981 851.007 338.443 853.104C396.653 888.39 488.152 887.165 533.348 881.354C537.163 880.864 540.128 877.909 540.778 874.118L549.458 823.567C551.178 813.55 565.626 813.719 567.111 823.774L589.654 976.369C590.301 980.756 594.065 984 598.496 984H668.767C673.703 984 677.705 979.997 677.705 975.064V866.744C677.705 862.639 680.626 859.048 684.581 857.943C901.642 797.26 872.605 484.208 859.959 396.5C835.998 417.53 808.917 438.404 768 454.5C722.177 472.527 660.071 484.506 580 485.5C577.541 485.53 575.297 488.55 575.5 491C576.099 498.23 577.298 499.616 581.81 507.303C583.868 510.81 583.873 515.266 581.34 518.447L579.134 521.22C575.488 525.799 568.473 525.691 565.628 520.576C556.141 503.515 554.043 485.519 555.939 469.46C557.45 456.666 561.442 445.346 565.833 436.658C568.472 431.438 575.421 431.103 579.191 435.575L581.374 438.166C583.996 441.277 584.144 445.751 582.256 449.356C580.285 453.118 578.371 457.691 576.927 462.777C576.153 465.505 578.31 468.096 581.145 468.052C658.569 466.859 715.437 454.943 758.917 437.839C802.934 420.523 833.558 397.763 858.073 374.89C858.306 374.673 858.556 374.486 858.819 374.326C859.153 373.844 859.535 373.386 859.959 372.958C933.225 298.961 903.772 184.155 859.013 108.943C856.843 105.298 852.372 103.79 848.394 105.265L590.781 200.786C640.285 77.8941 497.144 12.8738 454.536 41.8296C452.454 43.2445 451.437 45.6996 451.437 48.2164V286.659Z" fill="#D34E24"/>
<path d="M320.055 574.122C281.206 486.677 184.467 460.994 123.924 457.844C115.634 457.413 111.462 446.938 117.828 441.612C248.68 332.123 389.34 377.143 449.013 417.309C451.414 418.926 452.764 421.621 452.764 424.514V481.645C452.764 482.39 452.859 483.144 453.048 483.865C484.27 603.203 619.407 650.983 690.409 661.398C694.901 662.057 698.275 665.856 698.275 670.395V701.693C698.275 706.35 694.745 710.23 690.098 710.53C584.003 717.387 373.842 699.443 320.055 574.122Z" fill="#FFB30F"/>
<path d="M816.077 187.996C810.769 186.373 798.427 179.104 791.526 163.027C784.625 146.948 795.286 129.529 801.479 122.83C815.413 111.867 849.918 91.5258 876.459 97.8598C885.527 98.4688 905.39 106.021 912.291 131.357C913.839 149.424 915.077 191.163 907.646 213.576L901.674 222.711L896.365 199.568C892.606 194.29 885.749 187.996 876.459 186.778L816.077 187.996Z" fill="#FFB30F"/>
<path fill-rule="evenodd" clip-rule="evenodd" d="M494.922 395.067C619.886 395.067 721.19 302.085 721.19 187.387C721.19 175.861 720.167 164.555 718.2 153.54L590.781 200.786C640.285 77.8941 497.144 12.8738 454.536 41.8296C452.453 43.2445 451.437 45.6996 451.437 48.2164V286.659V391.235C465.509 393.75 480.048 395.067 494.922 395.067Z" fill="#FFB30F"/>
<path fill-rule="evenodd" clip-rule="evenodd" d="M610.212 257.448C611.399 259.299 610.822 261.755 609.011 263.111L588.536 278.426C585.106 280.99 586.735 286.312 590.973 286.391L615.295 286.847C617.629 286.891 619.511 288.702 619.427 291.015C618.683 311.34 606.734 328.268 588.825 331.747C566.624 336.061 543.671 318.074 537.559 291.571C531.447 265.07 544.49 240.089 566.692 235.776C583.19 232.57 600.103 241.68 610.212 257.448Z" fill="#D34E24"/>
</g>
<path fill-rule="evenodd" clip-rule="evenodd" d="M754.674 776.349C819.112 776.349 871.349 724.112 871.349 659.674C871.349 595.237 819.112 543 754.674 543C690.237 543 638 595.237 638 659.674C638 724.112 690.237 776.349 754.674 776.349ZM829.04 647.447C829.152 645.207 829.096 643.583 828.872 642.575C828.648 640.559 828.2 638.375 827.528 636.023C826.968 633.559 826.128 631.095 825.008 628.631C824 626.055 822.6 623.647 820.808 621.407C819.128 619.167 817.112 617.207 814.76 615.527C812.408 613.847 809.608 612.503 806.36 611.495C803.224 610.487 800.088 609.759 796.952 609.311C793.816 608.751 790.904 608.415 788.216 608.303C785.528 608.191 783.512 608.135 782.168 608.135H703.04C701.92 608.135 701.36 608.695 701.36 609.815V612.839C701.472 613.959 701.528 615.191 701.528 616.535C701.64 617.767 701.696 618.999 701.696 620.231C701.808 621.351 701.864 622.303 701.864 623.087C701.976 633.615 701.976 643.863 701.864 653.831V684.743C701.864 686.983 701.808 690.007 701.696 693.815C701.584 697.623 701.472 701.543 701.36 705.575C701.36 709.495 701.304 713.191 701.192 716.663C701.08 720.135 701.024 722.655 701.024 724.223C701.024 725.231 701.528 725.735 702.536 725.735H756.632C757.976 725.735 758.648 725.231 758.648 724.223V720.863V716.663V712.631C758.76 711.399 758.872 710.447 758.984 709.775C759.208 707.199 759.88 705.407 761 704.399C762.232 703.391 764.752 702.831 768.56 702.719C769.904 702.719 772.48 702.663 776.288 702.551C780.208 702.327 784.576 701.711 789.392 700.703C794.32 699.695 799.304 698.127 804.344 695.999C809.496 693.759 813.976 690.679 817.784 686.759C821.032 683.511 823.328 680.095 824.672 676.511C826.128 672.815 827.192 669.343 827.864 666.095C828.088 665.087 828.256 663.519 828.368 661.391C828.592 659.151 828.76 656.855 828.872 654.503C828.984 652.039 829.04 649.687 829.04 647.447ZM772.76 659.039V662.903C772.76 663.351 772.648 664.079 772.424 665.087C772.312 665.983 772.032 666.879 771.584 667.775C771.136 668.671 770.464 669.511 769.568 670.295C768.672 670.967 767.44 671.303 765.872 671.303C764.304 671.303 763.072 670.967 762.176 670.295C761.392 669.623 760.776 668.839 760.328 667.943C759.992 666.935 759.768 665.983 759.656 665.087C759.544 664.079 759.488 663.239 759.488 662.567C759.376 661.895 759.32 660.663 759.32 658.871V652.823V646.775C759.432 644.871 759.544 643.415 759.656 642.407C759.656 641.847 759.712 641.175 759.824 640.391C759.936 639.495 760.16 638.711 760.496 638.039C760.944 637.255 761.616 636.583 762.512 636.023C763.408 635.463 764.64 635.183 766.208 635.183C767.888 635.183 769.176 635.519 770.072 636.191C771.08 636.863 771.752 637.703 772.088 638.711C772.536 639.719 772.816 640.727 772.928 641.735C773.04 642.743 773.096 643.583 773.096 644.255V647.951C773.096 649.631 773.04 651.479 772.928 653.495C772.928 655.399 772.872 657.247 772.76 659.039Z" fill="#FFB30F"/>
<defs>
<filter id="filter0_d_33_132" x="75.021" y="15.0051" width="858.708" height="1009.29" filterUnits="userSpaceOnUse" color-interpolation-filters="sRGB">
<feFlood flood-opacity="0" result="BackgroundImageFix"/>
<feColorMatrix in="SourceAlpha" type="matrix" values="0 0 0 0 0 0 0 0 0 0 0 0 0 0 0 0 0 0 127 0" result="hardAlpha"/>
<feOffset dx="-20" dy="20"/>
<feComposite in2="hardAlpha" operator="out"/>
<feColorMatrix type="matrix" values="0 0 0 0 0.0431373 0 0 0 0 0.12549 0 0 0 0 0.152941 0 0 0 1 0"/>
<feBlend mode="normal" in2="BackgroundImageFix" result="effect1_dropShadow_33_132"/>
<feBlend mode="normal" in="SourceGraphic" in2="effect1_dropShadow_33_132" result="shape"/>
</filter>
<clipPath id="clip0_33_132">
<rect width="800" height="949" fill="white" transform="translate(114 35)"/>
</clipPath>
</defs>
</svg>
